<?xml version="1.0" standalone="no"?><!DOCTYPE svg PUBLIC "-//W3C//DTD SVG 1.1//EN" "http://www.w3.org/Graphics/SVG/1.1/DTD/svg11.dtd"><svg class="icon" width="200px" height="200.00px" viewBox="0 0 1024 1024" version="1.1" xmlns="http://www.w3.org/2000/svg"><path fill="#000000" d="M960 296.3c0.2-3.4-0.3-6.9-1.8-10.3l-71.9-164.9-0.4-0.8C875 100.1 854 87.5 831 87.4l-600.3-1c-23 0-44.1 12.5-55.1 32.7l-0.4 0.8L102.1 286c-1.9 4.3-2.3 8.9-1.4 13.2-0.4 2.7-0.6 5.5-0.6 8.3L99 845.1c-0.1 16.7 6.4 32.4 18.2 44.3 11.9 11.8 27.6 18.4 44.3 18.4l736.1 1c34.5 0 62.5-28 62.5-62.4l1.1-537.6c0-4.3-0.4-8.5-1.2-12.5zM214.7 139.4c3.4-5.7 9.4-9.1 16-9.1l600.3 1c6.5 0 12.6 3.5 15.9 9.1L893 246.1l-724.8-1 46.5-105.7z m224.5 150l182 0.2v285.6l-72.5-67.7c-10.2-9.5-26.8-9.5-37 0l-72.5 67.7V289.4z m477 556.9c0 10.2-8.4 18.5-18.6 18.5l-736-1c-4.9 0-9.6-2-13.1-5.5s-5.4-8.2-5.4-13.2l1.1-537.6c0-10.2 8.4-18.5 18.6-18.5l232.4 0.3v326.8c0 10 6.1 19.1 15.5 23.2 10.1 4.4 21.6 2.4 29.5-4.9l90-84 90 84c5.1 4.7 11.7 7.2 18.4 7.2 3.7 0 7.5-0.8 11.1-2.3 9.4-4.1 15.5-13.2 15.5-23.2V289.7l233.6 0.3c4.9 0 9.6 2 13.1 5.5s5.4 8.2 5.4 13.2l-1.1 537.6z" /></svg>