<?xml version="1.0" standalone="no"?><!DOCTYPE svg PUBLIC "-//W3C//DTD SVG 1.1//EN" "http://www.w3.org/Graphics/SVG/1.1/DTD/svg11.dtd"><svg class="icon" width="200px" height="200.00px" viewBox="0 0 1024 1024" version="1.1" xmlns="http://www.w3.org/2000/svg"><path fill="#000000" d="M 337.92 532.48 m -30.72 0 a 30.72 30.72 0 1 0 61.44 0 a 30.72 30.72 0 1 0 -61.44 0 Z"  /><path fill="#000000" d="M 744.653 921.6 H 299.827 a 65.7408 65.7408 0 0 1 -65.536 -65.536 V 208.896 c 0 -36.0448 29.4912 -65.536 65.536 -65.536 h 444.621 c 36.0448 0 65.536 29.4912 65.536 65.536 v 647.168 c 0.2048 36.0448 -29.2864 65.536 -65.3312 65.536 Z M 299.827 192.512 c -8.8064 0 -16.384 7.5776 -16.384 16.384 v 647.168 c 0 8.8064 7.5776 16.384 16.384 16.384 h 444.621 c 8.8064 0 16.384 -7.5776 16.384 -16.384 V 208.896 c 0 -8.8064 -7.5776 -16.384 -16.384 -16.384 H 299.827 Z"  /></svg>