<?xml version="1.0" standalone="no"?><!DOCTYPE svg PUBLIC "-//W3C//DTD SVG 1.1//EN" "http://www.w3.org/Graphics/SVG/1.1/DTD/svg11.dtd"><svg class="icon" width="200px" height="200.00px" viewBox="0 0 1024 1024" version="1.1" xmlns="http://www.w3.org/2000/svg"><path fill="#000000" d="M 394.24 304.742 c 6.3488 0 12.4928 -2.4576 17.408 -7.168 l 65.536 -65.536 v 312.32 c 0 13.5168 11.0592 24.576 24.576 24.576 s 24.576 -11.0592 24.576 -24.576 V 231.629 l 65.536 65.536 a 24.6579 24.6579 0 0 0 34.816 0 c 9.6256 -9.6256 9.6256 -25.1904 0 -34.816 l -107.315 -107.315 c -4.9152 -4.9152 -11.264 -7.168 -17.408 -7.168 h -0.2048 c -2.048 0 -3.8912 0.6144 -5.7344 1.2288 c -1.024 0.2048 -2.2528 0.2048 -3.2768 0.6144 c -3.2768 1.4336 -6.3488 3.4816 -8.8064 5.9392 l -107.11 107.11 c -9.6256 9.6256 -9.6256 25.1904 0 34.816 c 4.9152 4.7104 11.264 7.168 17.408 7.168 Z"  /><path fill="#000000" d="M 768 139.264 h -81.92 c -13.5168 0 -24.576 11.0592 -24.576 24.576 s 11.0592 24.576 24.576 24.576 h 81.92 c 43.008 0 77.824 34.816 77.824 77.824 v 491.52 c 0 43.008 -34.816 77.824 -77.824 77.824 h -532.48 c -43.008 0 -77.824 -34.816 -77.824 -77.824 V 266.24 c 0 -43.008 34.816 -77.824 77.824 -77.824 h 81.92 c 13.5168 0 24.576 -11.0592 24.576 -24.576 s -11.0592 -24.576 -24.576 -24.576 h -81.92 c -70.0416 0 -126.976 56.9344 -126.976 126.976 v 491.52 c 0 70.0416 56.9344 126.976 126.976 126.976 h 532.48 c 70.0416 0 126.976 -56.9344 126.976 -126.976 V 266.24 c 0 -70.0416 -56.9344 -126.976 -126.976 -126.976 Z"  /></svg>