<?xml version="1.0" standalone="no"?><!DOCTYPE svg PUBLIC "-//W3C//DTD SVG 1.1//EN" "http://www.w3.org/Graphics/SVG/1.1/DTD/svg11.dtd"><svg class="icon" width="200px" height="200.00px" viewBox="0 0 1024 1024" version="1.1" xmlns="http://www.w3.org/2000/svg"><path fill="#000000" d="M 504.422 581.427 c 2.4576 2.6624 5.3248 4.7104 8.8064 5.9392 c 1.024 0.4096 2.2528 0.4096 3.2768 0.6144 c 1.8432 0.4096 3.6864 1.2288 5.7344 1.2288 h 0.4096 c 6.3488 0 12.4928 -2.4576 17.408 -7.168 l 107.315 -107.315 a 24.5965 24.5965 0 1 0 -34.816 -34.816 l -65.536 65.536 V 192.922 c 0 -13.5168 -11.0592 -24.576 -24.576 -24.576 s -24.576 11.0592 -24.576 24.576 v 312.32 l -65.536 -65.536 a 24.5965 24.5965 0 1 0 -34.816 34.816 l 106.906 106.906 Z"  /><path fill="#000000" d="M 788.48 159.744 h -81.92 c -13.5168 0 -24.576 11.0592 -24.576 24.576 s 11.0592 24.576 24.576 24.576 h 81.92 c 43.008 0 77.824 34.816 77.824 77.824 v 491.52 c 0 43.008 -34.816 77.824 -77.824 77.824 h -532.48 c -43.008 0 -77.824 -34.816 -77.824 -77.824 V 286.72 c 0 -43.008 34.816 -77.824 77.824 -77.824 h 81.92 c 13.5168 0 24.576 -11.0592 24.576 -24.576 s -11.0592 -24.576 -24.576 -24.576 h -81.92 c -70.0416 0 -126.976 56.9344 -126.976 126.976 v 491.52 c 0 70.0416 56.9344 126.976 126.976 126.976 h 532.48 c 70.0416 0 126.976 -56.9344 126.976 -126.976 V 286.72 c 0 -70.0416 -56.9344 -126.976 -126.976 -126.976 Z"  /></svg>