<?xml version="1.0" standalone="no"?><!DOCTYPE svg PUBLIC "-//W3C//DTD SVG 1.1//EN" "http://www.w3.org/Graphics/SVG/1.1/DTD/svg11.dtd"><svg class="icon" width="200px" height="199.61px" viewBox="0 0 1026 1024" version="1.1" xmlns="http://www.w3.org/2000/svg"><path fill="#000000" d="M1024 251.345455v-2.327273c0-4.654545-2.327273-6.981818-2.327273-9.309091L954.181818 86.109091C930.909091 34.909091 882.036364 2.327273 826.181818 2.327273H200.145455C144.290909 0 95.418182 32.581818 72.145455 83.781818L4.654545 237.381818c-2.327273 2.327273-2.327273 6.981818-2.327272 9.309091v635.345455c0 76.8 62.836364 139.636364 139.636363 139.636363h744.727273c76.8 0 139.636364-62.836364 139.636364-139.636363V256c-2.327273-2.327273-2.327273-4.654545-2.327273-4.654545z m-158.254545-130.327273L905.309091 209.454545H674.909091V93.090909h148.945454c18.618182 0 34.909091 11.636364 41.89091 27.927273zM581.818182 465.454545h-139.636364V93.090909h139.636364v372.363636zM158.254545 121.018182c6.981818-16.290909 23.272727-27.927273 41.89091-27.927273H349.090909v116.363636H118.690909l39.563636-88.436363zM930.909091 884.363636c0 25.6-20.945455 46.545455-46.545455 46.545455H139.636364c-25.6 0-46.545455-20.945455-46.545455-46.545455V302.545455h256v162.90909c0 51.2 41.890909 93.090909 93.090909 93.09091h139.636364c51.2 0 93.090909-41.890909 93.090909-93.09091v-162.90909h256v581.818181z"  /></svg>