<?xml version="1.0" standalone="no"?><!DOCTYPE svg PUBLIC "-//W3C//DTD SVG 1.1//EN" "http://www.w3.org/Graphics/SVG/1.1/DTD/svg11.dtd"><svg class="icon" width="200px" height="200.00px" viewBox="0 0 1024 1024" version="1.1" xmlns="http://www.w3.org/2000/svg"><path fill="#000000" d="M127.506773 454.693547"  /><path fill="#000000" d="M511.03232 93.8752c-2.594133-0.013653-4.957867-0.00512-5.082453 0.068267L153.588053 301.786453c-0.868693 0.512-10.15808 17.6128-25.110186 41.777494-25.0624 40.507733-56.81664 94.0288-69.881174 116.41344 20.97152 14.23872 72.009387 42.42944 92.35456 53.66784 9.355947 6.080853 17.47456 18.57024 17.047894 42.059093l-31.486294-6.055253-3.167573 8.876373c-2.950827 1.764693-8.434347 3.37408-11.385173 5.138773 1.41312-9.680213-4.616533-13.499733-7.630507-15.336106-22.795947-12.593493-69.814613-38.54848-89.227947-53.174614-2.850133-2.14528-8.784213-6.761813-13.1584-14.97088-5.24288-9.838933-7.360853-22.539947 1.10592-37.26336 9.238187-16.069973 46.44352-79.056213 74.601814-124.566186 18.571947-30.015147 34.874027-54.065493 41.47712-57.960107L485.59104 50.27328c6.657707-3.923627 17.52064-5.961387 25.782613-6.406827l-0.341333 50.008747zM132.232533 549.582507l-1.897813 3.456 0.856747 1.471146 2.691413-4.901546-1.650347-0.0256z m-1.897813 3.456l1.897813-3.456-4.23936-0.06656c0.744107 0.95232 1.568427 2.228907 2.341547 3.52256z m0.856747 1.471146l2.691413-4.901546 2.629973 0.04096-3.167573 8.876373c0.008533 0.001707-0.92672-1.856853-2.153813-4.015787z"  /><path fill="#000000" d="M145.60768 313.593173c-3.485013-2.018987-7.49568-2.425173-11.14624-1.455786-3.626667 0.965973-6.893227 3.309227-8.912213 6.79424l-86.196907 148.77184c-2.018987 3.48672-2.425173 7.497387-1.455787 11.144533 0.954027 3.585707 3.252907 6.81472 6.669654 8.838827l350.037333 202.815146c3.48672 2.018987 7.499093 2.425173 11.147947 1.455787 3.626667-0.965973 6.893227-3.310933 8.910506-6.79424l86.198614-148.77184c2.018987-3.485013 2.42688-7.497387 1.455786-11.14624-0.964267-3.628373-3.310933-6.893227-6.795946-8.912213L145.60768 313.593173z m-14.196053-13.044053c6.58944-1.754453 13.85472-1.00352 20.201813 2.674347l349.912747 202.740053c6.350507 3.677867 10.620587 9.622187 12.38016 16.2304 1.752747 6.591147 1.001813 13.858133-2.674347 20.20352l-86.198613 148.77184c-3.679573 6.3488-9.627307 10.620587-16.232107 12.376747-6.587733 1.754453-13.85472 1.00352-20.20352-2.674347L38.685013 498.12992c-6.3488-3.677867-10.61888-9.623893-12.376746-16.2304-1.614507-6.065493-1.107627-12.704427 1.85344-18.67264v-0.114347l87.017813-150.186666c3.677867-6.3488 9.623893-10.61888 16.232107-12.376747z"  /><path fill="#000000" d="M522.31168 507.13088c107.746987-64.37888 245.009067-157.410987 353.365333-211.13856 6.157653-3.560107 13.206187-4.309333 19.638614-2.635093 6.43584 1.675947 12.250453 5.787307 15.935146 11.927893 5.814613 5.423787 75.410773 129.737387 85.823147 147.652267 3.657387 6.29248 4.440747 13.5168 2.75968 20.078933h-0.023893c-1.6896 6.58432-5.85216 12.535467-12.07808 16.252587C875.511467 556.322133 740.396373 628.43904 634.368 700.407467c-6.157653 3.560107-13.207893 4.307627-19.64032 2.635093-6.434133-1.675947-12.250453-5.783893-15.935147-11.927893-29.032107-48.841387-57.25696-98.501973-85.823146-147.652267-3.65568-6.290773-4.440747-13.5168-2.75968-20.078933h0.023893c1.6896-6.582613 5.85216-12.53376 12.07808-16.252587zM881.491627 306.5344L528.472747 517.45792c-3.4048 2.03264-5.68832 5.30432-6.618454 8.930987l0.022187 0.00512c-0.933547 3.647147-0.513707 7.642453 1.48992 11.08992l85.727573 147.51232c1.989973 3.31776 5.126827 5.53472 8.59648 6.439253 3.474773 0.902827 7.299413 0.489813 10.656427-1.450667L981.57056 478.941867c3.4048-2.030933 5.68832-5.30432 6.618453-8.930987l-0.022186-0.006827c0.933547-3.64544 0.513707-7.640747-1.48992-11.088213l-85.751467-147.534507c-1.98144-3.305813-5.113173-5.515947-8.572587-6.417066-3.459413-0.90112-7.263573-0.493227-10.60864 1.42336l-0.252586 0.146773zM168.18176 550.843733c-0.413013 7.207253-2.38592 90.898773-1.7408 149.7344 0.26624 24.43776-1.716907 42.001067 9.750187 48.344747l319.609173 184.94464c0.28672 0.165547 7.23968 0.237227 15.598933 0.24064v47.977813c-15.532373-0.008533-31.429973-1.86368-39.683413-6.637226L139.690667 783.31904c-15.46752-11.8016-20.788907-42.272427-21.22752-82.36544-0.66048-60.317013 1.322667-145.46944 1.7408-152.74496l47.977813 2.635093z"  /><path fill="#000000" d="M507.368107 965.60128l-1.35168-439.330133h11.994453l1.35168 439.330133z"  /><path fill="#000000" d="M516.046507 81.21344l1.964373 445.03552-11.994453 0.047787-1.964374-445.03552zM421.579093 836.53632l0.01024-29.71648c0-0.344747-0.0768-0.472747-0.397653-0.472747l-13.46048-0.0256a0.510293 0.510293 0 0 1-0.47616-0.320853 0.503467 0.503467 0 0 1 0.114347-0.561493l18.80576-18.52416c0.201387-0.19968 0.529067-0.196267 0.728746 0.00512l18.240854 18.52416c0.150187 0.150187 0.18944 0.36352 0.10752 0.559786a0.507563 0.507563 0 0 1-0.474454 0.31744l-12.509866 0.04096c-0.211627 0-0.387413 0.201387-0.387414 0.366934l0.00512 30.061226c0 0.252587-0.078507 0.36352-0.298666 0.36352h-9.58976c-0.080213 0-0.418133-0.370347-0.418134-0.617813z"  /><path fill="#000000" d="M419.87584 836.53632l0.013653-28.491093-12.158293-0.023894c-0.442027 0.006827-0.878933-0.128-1.242453-0.37376l-0.011947-0.013653a2.179072 2.179072 0 0 1-0.78848-0.9728 2.237099 2.237099 0 0 1-0.136533-1.28l0.00512-0.0256c0.08704-0.416427 0.293547-0.812373 0.626346-1.13664l18.798934-18.517333c0.431787-0.42496 0.994987-0.641707 1.558186-0.641707l0.02048 0.006827c0.561493 0.006827 1.1264 0.223573 1.549654 0.646826l18.23744 18.527574c0.32768 0.320853 0.539307 0.730453 0.616106 1.163946 0.07168 0.407893 0.03072 0.82944-0.13312 1.232214-0.16896 0.423253-0.457387 0.76288-0.800426 0.9984l-0.039254 0.027306c-0.3584 0.233813-0.781653 0.365227-1.21344 0.365227l-11.19744 0.029013 0.00512 28.73344c0.006827 0.50688-0.126293 0.935253-0.41984 1.31584l-0.02048 0.02048c-0.40448 0.505173-0.91136 0.733867-1.558186 0.733867h-9.58976c-0.477867 0-1.322667-0.46592-1.703254-1.037653-0.2304-0.3584-0.421547-0.80896-0.418133-1.286827z m3.416747-29.71648l-0.013654 28.627627h6.90688l-0.00512-28.71808c-0.006827-0.54272 0.24576-1.102507 0.65024-1.48992l0.013654-0.011947c0.356693-0.331093 0.851627-0.571733 1.42336-0.571733l9.68704-0.0256-15.429974-15.670614-15.906133 15.6672 10.5728 0.02048c0.72192-0.006827 1.23392 0.221867 1.652053 0.74752 0.344747 0.4352 0.452267 0.87552 0.448854 1.425067zM511.044267 93.8752c2.594133-0.013653 4.94592-0.00512 5.070506 0.068267l352.361814 207.842986c0.868693 0.512 10.15808 17.6128 25.110186 41.777494 25.0624 40.507733 56.81664 94.0288 69.881174 116.41344-20.97152 14.23872-72.009387 42.42944-92.35456 53.66784-9.355947 6.080853-16.774827 17.570133-16.34816 41.058986l30.78656-5.055146 3.167573 8.876373c2.950827 1.764693 8.434347 3.37408 11.385173 5.138773-1.41312-9.680213 4.616533-13.499733 7.630507-15.336106 22.795947-12.593493 69.814613-38.54848 89.227947-53.174614 2.850133-2.14528 8.784213-6.761813 13.1584-14.97088 5.24288-9.838933 7.360853-22.539947-1.10592-37.26336-9.238187-16.069973-46.44352-79.056213-74.601814-124.566186-18.571947-30.015147-34.874027-54.065493-41.47712-57.960107L536.4736 50.27328c-8.521387-5.7856-25.099947-8.465067-33.747627-4.667733l8.318294 48.269653z m378.78784 455.707307l1.897813 3.456-0.856747 1.471146-2.691413-4.901546 1.650347-0.0256z m1.897813 3.456l-1.897813-3.456 4.23936-0.06656c-0.744107 0.95232-1.568427 2.228907-2.341547 3.52256z m-0.856747 1.471146l-2.691413-4.901546-2.629973 0.04096 3.167573 8.876373c-0.008533 0.001707 0.92672-1.856853 2.153813-4.015787z"  /><path fill="#000000" d="M854.61504 550.843733c0.413013 7.207253 2.38592 90.898773 1.7408 149.7344-0.26624 24.43776 1.716907 42.001067-9.750187 48.344747L526.99648 933.86752c-0.28672 0.165547-7.23968 0.237227-15.598933 0.24064v47.977813c15.532373-0.008533 31.429973-1.86368 39.683413-6.637226l332.025173-192.129707c15.46752-11.8016 20.788907-42.272427 21.22752-82.36544 0.66048-60.317013-1.322667-145.46944-1.7408-152.74496l-47.977813 2.635093z"  /></svg>