<svg viewBox="0 0 1000 1000" height="1000" width="1000" xmlns:xlink="http://www.w3.org/1999/xlink" xmlns="http://www.w3.org/2000/svg" id="图片加载失败">
  <defs>
    <style>
      .cls-1, .cls-10, .cls-11, .cls-12, .cls-2, .cls-3, .cls-4, .cls-6, .cls-7, .cls-8, .cls-9 {
        fill-rule: evenodd;
      }

      .cls-1 {
        fill: url(#linear-gradient);
      }

      .cls-2 {
        fill: url(#linear-gradient-2);
      }

      .cls-3 {
        fill: url(#linear-gradient-3);
      }

      .cls-4 {
        fill: url(#linear-gradient-4);
      }

      .cls-5 {
        fill: #f9f2f1;
      }

      .cls-6 {
        fill: #ebcbc9;
      }

      .cls-7 {
        fill: url(#linear-gradient-5);
      }

      .cls-8 {
        fill: url(#linear-gradient-6);
      }

      .cls-9 {
        fill: url(#linear-gradient-7);
      }

      .cls-10 {
        fill: #fff;
      }

      .cls-11 {
        fill: url(#linear-gradient-8);
      }

      .cls-12 {
        fill: url(#linear-gradient-9);
      }
    </style>
    <linearGradient gradientUnits="userSpaceOnUse" y2="577.875" x2="497.797" y1="863.313" x1="497.797" id="linear-gradient">
      <stop stop-color="#fff" offset="0"></stop>
      <stop stop-color="#fff" offset="0.01"></stop>
      <stop stop-color="#f9f3f2" offset="1"></stop>
    </linearGradient>
    <linearGradient gradientUnits="userSpaceOnUse" y2="483.844" x2="106.188" y1="562" x1="106.188" id="linear-gradient-2">
      <stop stop-color="#fff" offset="0"></stop>
      <stop stop-color="#f9f2f1" offset="1"></stop>
    </linearGradient>
    <linearGradient xlink:href="#linear-gradient-2" y2="197.875" x2="748.89" y1="311" x1="748.89" id="linear-gradient-3"></linearGradient>
    <linearGradient xlink:href="#linear-gradient-2" y2="549.5" x2="883.157" y1="606.031" x1="883.157" id="linear-gradient-4"></linearGradient>
    <linearGradient gradientUnits="userSpaceOnUse" y2="372.063" x2="647.297" y1="689.938" x1="647.297" id="linear-gradient-5">
      <stop stop-color="#e9c7c3" offset="0"></stop>
      <stop stop-color="#f3e0df" offset="1"></stop>
    </linearGradient>
    <linearGradient xlink:href="#linear-gradient-5" y2="505.813" x2="590.25" y1="704.188" x1="590.25" id="linear-gradient-6"></linearGradient>
    <linearGradient gradientUnits="userSpaceOnUse" y2="504.5" x2="498.563" y1="504.5" x1="235.719" id="linear-gradient-7">
      <stop stop-color="#f3e0df" offset="0"></stop>
      <stop stop-color="#ecd6d2" offset="1"></stop>
    </linearGradient>
    <linearGradient gradientUnits="userSpaceOnUse" y2="178.5" x2="352.891" y1="266.125" x1="352.891" id="linear-gradient-8">
      <stop stop-color="#ecd6d2" offset="0"></stop>
      <stop stop-color="#f2e0df" offset="1"></stop>
    </linearGradient>
    <linearGradient gradientUnits="userSpaceOnUse" y2="211.125" x2="704.343" y1="339.469" x1="704.343" id="linear-gradient-9">
      <stop stop-color="#eacac6" offset="0"></stop>
      <stop stop-color="#f3e0df" offset="1"></stop>
    </linearGradient>
  </defs>
  <path d="M497.8,577.862c247.56,0,448.246,63.9,448.246,142.719S745.358,863.3,497.8,863.3,49.552,799.4,49.552,720.581,250.239,577.862,497.8,577.862Z" class="cls-1" id="椭圆_1"></path>
  <g id="组_15">
    <path d="M88,506s-36.385-5.24-37,27c-0.18,13.306,14.054,29,25,29h55c19.276,0,43.44-36.748,22-63S93.138,484.21,88,506Z" class="cls-2" id="形状_16"></path>
    <path d="M722.553,229.947S669.891,222.363,669,269.026C668.739,288.285,689.341,311,705.184,311H784.79c27.9,0,62.875-53.188,31.843-91.185S729.99,198.409,722.553,229.947Z" class="cls-3" id="形状_16_拷贝_2"></path>
    <path d="M870,565.539s-26.313-3.79-26.758,19.526c-0.13,9.622,10.163,20.972,18.079,20.972H901.1c13.94,0,31.415-26.575,15.91-45.561S873.718,549.781,870,565.539Z" class="cls-4" id="形状_16_拷贝"></path>
    <ellipse ry="17.469" rx="173.578" cy="748.282" cx="495.828" class="cls-5" id="椭圆_1-2"></ellipse>
  </g>
  <g id="组_5">
    <path d="M643.14,366.651l102.491,27.577c10.885,2.929,17.425,13.794,14.607,24.268L687.267,689.7c-2.819,10.474-13.928,16.591-24.813,13.662L559.963,675.788c-10.886-2.929-17.426-13.795-14.607-24.269l72.971-271.206C621.145,369.839,632.254,363.722,643.14,366.651Z" class="cls-6" id="圆角矩形_8"></path>
    <path d="M256.1,339.477h275.06c-10.7,12.147-54.15,56.981-65.2,67.237l46.862,103.911c-2.481,10.822-24.66,96.02-34.638,134.474-2.763,2.786-9.621,7.17-14.262,10.187L256.1,645.1a20.375,20.375,0,0,1-20.375-20.375V359.851A20.375,20.375,0,0,1,256.1,339.477Z" class="cls-6" id="圆角矩形_7"></path>
    <path d="M671.748,689.923s74.876-264.151,75.387-277.1c-1.466-11.347-124.286-40.75-124.286-40.75l-75.387,42.787L565.8,514.7l32.6,156.886Z" class="cls-7" id="形状_6"></path>
    <path d="M671.748,704.186L490.412,657.324s69.546-126.545,77.425-140.587,22.989-11.818,28.524-8.149,93.725,165.036,93.725,165.036S691.193,702.241,671.748,704.186Z" class="cls-8" id="形状_5"></path>
    <path d="M256.1,351.7H496.525c-10.7,12.148-35.221,39.761-46.862,52.975l48.9,107.987c-3.58,18.234-30.255,118.167-36.674,144.661H256.1a20.375,20.375,0,0,1-20.375-20.375V372.076A20.375,20.375,0,0,1,256.1,351.7Z" class="cls-9" id="圆角矩形_7-2"></path>
    <path d="M657.486,437.276a32.6,32.6,0,1,1-32.6,32.6A32.6,32.6,0,0,1,657.486,437.276Z" class="cls-6" id="椭圆_7_拷贝"></path>
    <path d="M653.411,435.238a32.6,32.6,0,1,1-32.6,32.6A32.6,32.6,0,0,1,653.411,435.238Z" class="cls-10" id="椭圆_7"></path>
    <path d="M321.3,178.515l16.3,57.05,24.45-10.187,22.412,40.749L370.2,205,343.714,215.19Z" class="cls-11" id="形状_7"></path>
    <path d="M653.411,339.477L745.1,294.652,710.46,260.015l44.825-48.9-77.424,48.9,26.487,30.562Z" class="cls-12" id="形状_8"></path>
  </g>
</svg>
