<svg viewBox="0 0 1000 1000" height="1000" width="1000" xmlns:xlink="http://www.w3.org/1999/xlink" xmlns="http://www.w3.org/2000/svg" id="暂无数据">
  <defs>
    <style>
      .cls-1, .cls-8 {
        fill: none;
      }

      .cls-1 {
        stroke: #f2e1de;
        stroke-width: 2px;
        stroke-dasharray: 8 4;
      }

      .cls-1, .cls-10, .cls-11, .cls-12, .cls-13, .cls-2, .cls-3, .cls-4, .cls-5, .cls-6, .cls-8, .cls-9 {
        fill-rule: evenodd;
      }

      .cls-2 {
        fill: url(#linear-gradient);
      }

      .cls-3 {
        fill: url(#linear-gradient-2);
      }

      .cls-4 {
        fill: url(#linear-gradient-3);
      }

      .cls-5 {
        fill: url(#linear-gradient-4);
      }

      .cls-6 {
        fill: url(#linear-gradient-5);
      }

      .cls-7 {
        fill: #f9f2f1;
      }

      .cls-8 {
        stroke: #fff;
        stroke-width: 20px;
      }

      .cls-9 {
        fill: url(#linear-gradient-6);
      }

      .cls-10 {
        fill: url(#linear-gradient-7);
      }

      .cls-11 {
        fill: #ebcbc9;
      }

      .cls-12 {
        fill: url(#linear-gradient-8);
      }

      .cls-13 {
        fill: #fff;
      }
    </style>
    <linearGradient gradientUnits="userSpaceOnUse" y2="223.188" x2="339.516" y1="274.156" x1="339.516" id="linear-gradient">
      <stop stop-color="#f3e3e1" offset="0"></stop>
      <stop stop-color="#ecd0ce" offset="1"></stop>
    </linearGradient>
    <linearGradient gradientUnits="userSpaceOnUse" y2="577.906" x2="498.797" y1="863.531" x1="498.797" id="linear-gradient-2">
      <stop stop-color="#fff" offset="0"></stop>
      <stop stop-color="#fff" offset="0.01"></stop>
      <stop stop-color="#f9f3f2" offset="1"></stop>
    </linearGradient>
    <linearGradient gradientUnits="userSpaceOnUse" y2="483.844" x2="106.188" y1="562" x1="106.188" id="linear-gradient-3">
      <stop stop-color="#fff" offset="0"></stop>
      <stop stop-color="#f9f2f1" offset="1"></stop>
    </linearGradient>
    <linearGradient xlink:href="#linear-gradient-3" y2="197.875" x2="748.89" y1="311" x1="748.89" id="linear-gradient-4"></linearGradient>
    <linearGradient xlink:href="#linear-gradient-3" y2="549.5" x2="883.157" y1="606.031" x1="883.157" id="linear-gradient-5"></linearGradient>
    <linearGradient gradientUnits="userSpaceOnUse" y2="621.172" x2="711.594" y1="621.172" x1="283.469" id="linear-gradient-6">
      <stop stop-color="#f3e0df" offset="0"></stop>
      <stop stop-color="#ecd6d2" offset="1"></stop>
    </linearGradient>
    <linearGradient gradientUnits="userSpaceOnUse" y2="443.563" x2="712.281" y1="443.563" x1="283.469" id="linear-gradient-7">
      <stop stop-color="#f3e0df" offset="0"></stop>
      <stop stop-color="#ebcbc9" offset="0.459"></stop>
      <stop stop-color="#ecd6d2" offset="0.986"></stop>
      <stop stop-color="#ecd6d2" offset="1"></stop>
    </linearGradient>
    <linearGradient gradientUnits="userSpaceOnUse" y2="355.688" x2="496.89" y1="549.375" x1="496.89" id="linear-gradient-8">
      <stop stop-color="#f8f0ef" offset="0"></stop>
      <stop stop-color="#f3e0df" offset="1"></stop>
    </linearGradient>
  </defs>
  <path d="M872.645,410.735s-71.287-49.1-171.251-34.658-69.316-34.658-69.316-34.658-58.252-115.036-244.645-85.626" class="cls-1" id="形状_3"></path>
  <path d="M297.73,223.174L338.5,274.141l16.309-14.27,16.31,4.077-8.155-12.232-48.929-24.465,53.007,14.271,14.271-16.31Z" class="cls-2" id="形状_4"></path>
  <path d="M498.8,577.909c247.709,0,448.516,63.936,448.516,142.805s-200.807,142.8-448.516,142.8S50.281,799.583,50.281,720.714,251.089,577.909,498.8,577.909Z" class="cls-3" id="椭圆_1"></path>
  <g id="组_15">
    <path d="M88,506s-36.385-5.24-37,27c-0.18,13.306,14.054,29,25,29h55c19.276,0,43.44-36.748,22-63S93.138,484.21,88,506Z" class="cls-4" id="形状_16"></path>
    <path d="M722.553,229.947S669.891,222.363,669,269.026C668.739,288.285,689.341,311,705.184,311H784.79c27.9,0,62.875-53.188,31.843-91.185S729.99,198.409,722.553,229.947Z" class="cls-5" id="形状_16_拷贝_2"></path>
    <path d="M870,565.539s-26.313-3.79-26.758,19.526c-0.13,9.622,10.163,20.972,18.079,20.972H901.1c13.94,0,31.415-26.575,15.91-45.561S873.718,549.781,870,565.539Z" class="cls-6" id="形状_16_拷贝"></path>
    <ellipse ry="17.469" rx="173.578" cy="748.282" cx="495.828" class="cls-7" id="椭圆_1-2"></ellipse>
  </g>
  <path d="M856.9,557.331H933.5a8.713,8.713,0,0,1,8.714,8.714v18.122a8.713,8.713,0,0,1-8.714,8.714H856.9a8.713,8.713,0,0,1-8.714-8.714V566.045A8.713,8.713,0,0,1,856.9,557.331Z" class="cls-8" id="圆角矩形_4_拷贝_3"></path>
  <path d="M873.969,543h67.879a8.714,8.714,0,0,1,8.714,8.714v18.122a8.713,8.713,0,0,1-8.714,8.714H873.969a8.713,8.713,0,0,1-8.714-8.714V551.71A8.714,8.714,0,0,1,873.969,543Z" class="cls-8" id="圆角矩形_4_拷贝_3-2"></path>
  <path d="M293.652,551.406H701.394c5.63,0,10.193-1.553,10.193,4.077v126.4a10.193,10.193,0,0,1-10.193,10.194H293.652a10.193,10.193,0,0,1-10.193-10.194V553.445C283.459,547.815,288.022,551.406,293.652,551.406Z" class="cls-9" id="矩形_4"></path>
  <path d="M361.038,334.411H634.773a11.071,11.071,0,0,1,11.071,11.071l66.427,203.007c0,6.115-4.957,2.917-11.071,2.917H294.611c-6.114,0-11.152,4.076-11.152-2.039l66.508-203.885A11.071,11.071,0,0,1,361.038,334.411Z" class="cls-10" id="圆角矩形_12"></path>
  <path d="M371.888,351.612H623.923a10.194,10.194,0,0,1,10.194,10.194l61.161,179.406a10.194,10.194,0,0,1-10.194,10.194H310.727a10.194,10.194,0,0,1-10.194-10.194l61.161-179.406A10.194,10.194,0,0,1,371.888,351.612Z" class="cls-11" id="圆角矩形_12-2"></path>
  <path d="M375.965,355.69l241.842,2.039c5.63,0,10.193,2.525,10.193,8.154l61.162,173.291a10.194,10.194,0,0,1-10.194,10.193H314.8a10.194,10.194,0,0,1-10.194-10.193l61.162-173.291A10.193,10.193,0,0,1,375.965,355.69Z" class="cls-12" id="圆角矩形_12_拷贝"></path>
  <g id="组_9">
    <path d="M414.587,596.512H580.969a11.545,11.545,0,0,1,11.545,11.545v23.992a11.545,11.545,0,0,1-11.545,11.545H414.587a11.545,11.545,0,0,1-11.545-11.545V608.057A11.545,11.545,0,0,1,414.587,596.512Z" class="cls-11" id="圆角矩形_8_拷贝_7"></path>
    <path d="M411.864,605.113h163.29a10.161,10.161,0,0,1,10.161,10.161v21.09a10.16,10.16,0,0,1-10.161,10.16H411.864a10.16,10.16,0,0,1-10.16-10.16v-21.09A10.16,10.16,0,0,1,411.864,605.113Z" class="cls-13" id="圆角矩形_8_拷贝_7-2"></path>
  </g>
</svg>
