<svg viewBox="0 0 1000 1000" height="1000" width="1000" xmlns:xlink="http://www.w3.org/1999/xlink" xmlns="http://www.w3.org/2000/svg" id="暂无消息">
  <defs>
    <style>
      .cls-1, .cls-2, .cls-3, .cls-4, .cls-5, .cls-6, .cls-7, .cls-8 {
        fill-rule: evenodd;
      }

      .cls-1 {
        fill: url(#linear-gradient);
      }

      .cls-2 {
        fill: url(#linear-gradient-2);
      }

      .cls-3 {
        fill: url(#linear-gradient-3);
      }

      .cls-4 {
        fill: url(#linear-gradient-4);
      }

      .cls-5 {
        fill: #f9f2f1;
      }

      .cls-6 {
        fill: #ebcbc9;
      }

      .cls-7 {
        fill: url(#linear-gradient-5);
      }

      .cls-8 {
        fill: #fff;
      }
    </style>
    <linearGradient gradientUnits="userSpaceOnUse" y2="484.844" x2="104.188" y1="563" x1="104.188" id="linear-gradient">
      <stop stop-color="#fff" offset="0"></stop>
      <stop stop-color="#f9f2f1" offset="1"></stop>
    </linearGradient>
    <linearGradient xlink:href="#linear-gradient" y2="198.875" x2="746.89" y1="312" x1="746.89" id="linear-gradient-2"></linearGradient>
    <linearGradient xlink:href="#linear-gradient" y2="550.5" x2="881.157" y1="607.031" x1="881.157" id="linear-gradient-3"></linearGradient>
    <linearGradient gradientUnits="userSpaceOnUse" y2="578.719" x2="497.563" y1="864.469" x1="497.563" id="linear-gradient-4">
      <stop stop-color="#fff" offset="0"></stop>
      <stop stop-color="#fff" offset="0.01"></stop>
      <stop stop-color="#f9f3f2" offset="1"></stop>
    </linearGradient>
    <linearGradient gradientUnits="userSpaceOnUse" y2="511.984" x2="695.844" y1="511.984" x1="283.594" id="linear-gradient-5">
      <stop stop-color="#f3e0df" offset="0"></stop>
      <stop stop-color="#ecd5d2" offset="1"></stop>
    </linearGradient>
  </defs>
  <g id="组_15">
    <path d="M86,507s-36.385-5.24-37,27c-0.18,13.306,14.054,29,25,29h55c19.276,0,43.44-36.748,22-63S91.138,485.21,86,507Z" class="cls-1" id="形状_16"></path>
    <path d="M720.553,230.947S667.891,223.363,667,270.026C666.739,289.285,687.341,312,703.184,312H782.79c27.9,0,62.875-53.188,31.843-91.185S727.989,199.409,720.553,230.947Z" class="cls-2" id="形状_16_拷贝_2"></path>
    <path d="M868,566.539s-26.313-3.79-26.758,19.526c-0.13,9.622,10.163,20.972,18.079,20.972H899.1c13.94,0,31.415-26.575,15.91-45.561S871.718,550.781,868,566.539Z" class="cls-3" id="形状_16_拷贝"></path>
    <path d="M497.558,578.709c247.494,0,448.127,63.967,448.127,142.874S745.052,864.457,497.558,864.457,49.431,800.49,49.431,721.583,250.065,578.709,497.558,578.709Z" class="cls-4" id="椭圆_1"></path>
    <path d="M493.829,731.814c95.858,0,173.565,7.819,173.565,17.464s-77.707,17.465-173.565,17.465-173.565-7.819-173.565-17.465S397.972,731.814,493.829,731.814Z" class="cls-5" id="椭圆_1-2"></path>
  </g>
  <g id="组_4">
    <path d="M334.323,312.293H661.545a50.761,50.761,0,0,1,50.727,50.8V575.21a50.761,50.761,0,0,1-50.727,50.795H602.626c-31.75,0-65.806,71.113-105.976,71.113-34.806,0-75.888-71.113-103.4-71.113H334.323A50.761,50.761,0,0,1,283.6,575.21V363.088A50.761,50.761,0,0,1,334.323,312.293Z" class="cls-6" id="圆角矩形_7_拷贝"></path>
    <path d="M332.381,326.948H647.073a48.817,48.817,0,0,1,48.784,48.85v204a48.817,48.817,0,0,1-48.784,48.85H590.41c-30.534,0-63.286,68.39-101.919,68.39-33.472,0-72.981-68.39-99.439-68.39H332.381A48.817,48.817,0,0,1,283.6,579.8v-204A48.817,48.817,0,0,1,332.381,326.948Z" class="cls-7" id="圆角矩形_7_拷贝-2"></path>
    <path d="M415.5,401.511H581.719a11.545,11.545,0,0,1,11.545,11.545V437.07a11.545,11.545,0,0,1-11.545,11.545H415.5a11.545,11.545,0,0,1-11.545-11.545V413.056A11.545,11.545,0,0,1,415.5,401.511Z" class="cls-6" id="圆角矩形_8_拷贝_2"></path>
    <path d="M412.773,410.116H575.905a10.156,10.156,0,0,1,10.157,10.156v21.119a10.156,10.156,0,0,1-10.157,10.156H412.773a10.156,10.156,0,0,1-10.156-10.156V420.272A10.156,10.156,0,0,1,412.773,410.116Z" class="cls-8" id="圆角矩形_8_拷贝_2-2"></path>
    <path d="M415.515,484.565h166.19a11.559,11.559,0,0,1,11.559,11.559v24.049a11.559,11.559,0,0,1-11.559,11.559H415.515a11.56,11.56,0,0,1-11.56-11.559V496.124A11.56,11.56,0,0,1,415.515,484.565Z" class="cls-6" id="圆角矩形_8_拷贝_3"></path>
    <path d="M412.763,493.169H575.916a10.147,10.147,0,0,1,10.146,10.146v21.14A10.147,10.147,0,0,1,575.916,534.6H412.763a10.146,10.146,0,0,1-10.146-10.146v-21.14A10.146,10.146,0,0,1,412.763,493.169Z" class="cls-8" id="圆角矩形_8_拷贝_3-2"></path>
  </g>
</svg>
