<?xml version="1.0" standalone="no"?><!DOCTYPE svg PUBLIC "-//W3C//DTD SVG 1.1//EN" "http://www.w3.org/Graphics/SVG/1.1/DTD/svg11.dtd"><svg class="icon" width="200px" height="200.00px" viewBox="0 0 1024 1024" version="1.1" xmlns="http://www.w3.org/2000/svg"><path fill="#000000" d="M92.888895 449.123753"  /><path fill="#000000" d="M511.01112031 84.33040438c-2.650965-0.01395281-5.06648344-0.00523219-5.19379969 0.06976218L167.39194906 284.02657531c-8.55982781 2.67538219-8.60342906 5.23565625-8.5040175 10.58118844l-49.08471562-3.1375575c0.08894719-10.14343031-0.56332969-30.1686825 12.93566437-38.14250719l7.83081188-4.62523687L485.01247531 39.77325781c6.80356313-4.00958531 17.90448-6.09198844 26.34745594-6.54718594l-0.34881094 51.1043325c3.0346575-0.01395281 5.79549844-0.00523219 5.94374344 0.06976219l338.42537156 199.62640875c8.56157156 4.5921 8.60517281 7.44363187 8.50750594 14.08325344l49.08122719-6.6396225c-0.08894719-10.14343031 0.56332969-30.1686825-12.93566438-38.14250719l-7.83081187-4.62523687L537.75970906 39.77325781c-6.80356313-4.00958531-17.90448-6.09198844-26.34745593-6.54718594l-0.40113282 51.1043325z m352.87662094 213.77942437c-0.01220813 7.43142281 0.67320563 346.60325062 0.01395187 406.21508906-0.27207281 24.97314 1.75452 42.92122125-9.96379218 49.40387813L527.32676563 942.72518188c-0.29300156 0.16917375-7.39828594 0.24242344-15.94067344 0.24591187-8.54238656-0.00348844-15.64767188-0.07673812-15.94067344-0.24591187L168.83428344 753.72879594c-11.71831312-6.48265687-9.69172031-24.43073812-9.96379219-49.40387813-0.65925281-60.12459094 0.02790469-402.22120125 0.01744031-409.71715406l-49.08471562-3.1375575c-0.42729375 7.43491125-0.63658031 351.59997187 0.03836906 413.23840406 0.4482225 40.97136656 5.88618937 72.10974469 21.69257063 84.16989281l339.29914312 196.3388625c8.43425531 4.87812469 24.68013844 6.77391375 40.55279344 6.78263438 15.872655-0.00872062 32.11853813-1.90450969 40.55279343-6.78263438l339.29914313-196.3388625c15.80638031-12.06014812 21.24434812-43.19852625 21.69257063-84.16989281 0.67494937-61.63843219 0.46566281-405.80349188 0.03836906-413.23840406l-49.08122719 6.6396225z"  /><path fill="#000000" d="M507.26663187 975.15416187l-1.38129281-448.95492843h12.25722656l1.38129282 448.95492843zM324.76336625 399.07672531l360.49989-239.52866812 10.16435906 15.35815781-360.49989 239.52866906z"  /><path fill="#000000" d="M312.301387 441.715933l-2.844439-40.943927 18.677679 5.355881 2.844439 40.943926z"  /><path fill="#000000" d="M151.92566 281.87266531l363.45257719 239.20776281-6.72856875 10.23760969L145.19709125 292.110275z"  /><path fill="#000000" d="M869.33791625 281.87266531L505.88533906 521.08042813l6.72856875 10.23760968 363.45257719-239.20776281zM417.85759438 843.26166125l0.01395187-29.11527281-12.42465562-0.02441719c-0.45171094 0.00697594-0.89818875-0.13080375-1.26967313-0.38194781l-0.01220812-0.01395281a2.22681094 2.22681094 0 0 1-0.80575407-0.99411188 2.28610875 2.28610875 0 0 1-0.13952437-1.30804219l0.00523219-0.02616093c0.08894719-0.42555 0.2999775-0.83017031 0.64006875-1.16154094l19.21077843-18.92300906c0.44124656-0.43426969 1.01678438-0.65576531 1.59232313-0.65576532l0.02092875 0.00697594c0.57379406 0.00697594 1.1510775 0.22847156 1.5836025 0.6609975l18.63698437 18.93347344c0.33485906 0.32788219 0.55112156 0.74645625 0.62960438 1.18944562 0.07325062 0.41682938 0.03139313 0.84761156-0.13603688 1.25920875-0.17266125 0.43252594-0.4674075 0.77959312-0.81796218 1.02027282l-0.04011375 0.02790468c-0.36625219 0.23893594-0.79877813 0.37322813-1.24002375 0.37322813l-11.44275188 0.02964937 0.00523219 29.36292844c0.00697594 0.51798469-0.12906 0.95574281-0.4290375 1.3446675l-0.02092875 0.02092875c-0.41334094 0.51624094-0.93132563 0.74994375-1.59232313 0.74994469h-9.79985156c-0.48833531 0-1.35164344-0.47612719-1.74056812-1.06038656-0.2354475-0.36625219-0.43078219-0.82668281-0.42729375-1.31501813z"  /></svg>